HIERARCHY
ROOT Hips
{
  OFFSET 127.548 95.0288 96.5434
  CHANNELS 6 Xposition Yposition Zposition Zrotation Xrotation Yrotation
  JOINT RightUpLeg
  {
    OFFSET -8.9458 -8.66707 0.101652
    CHANNELS 3 Zrotation Xrotation Yrotation
    JOINT RightLeg
    {
      OFFSET 0 -44.4227 1.3727
      CHANNELS 3 Zrotation Xrotation Yrotation
      JOINT RightFoot
      {
        OFFSET 0.253549 -42.0924 -1.46059
        CHANNELS 3 Zrotation Xrotation Yrotation
        JOINT RightToes
        {
          OFFSET 0.04 -4.41509 8.4991
          CHANNELS 3 Zrotation Xrotation Yrotation
          End Site
          {
            OFFSET -0.08 -0.137448 9.77979
          }
        }
      }
    }
  }
  JOINT Spine
  {
    OFFSET 0 11.8905 0
    CHANNELS 3 Zrotation Xrotation Yrotation
    JOINT Spine1
    {
      OFFSET 0 25.6574 0.127663
      CHANNELS 3 Zrotation Xrotation Yrotation
      JOINT HEad
      {
        OFFSET 0 8.73416 0.011341
        CHANNELS 3 Zrotation Xrotation Yrotation
        End Site
        {
          OFFSET -0.29 12.7742 2.51395
        }
      }
      JOINT LeftShoulder1
      {
        OFFSET 8.99 -0.362252 -0.22
        CHANNELS 3 Zrotation Xrotation Yrotation
        JOINT LeftArm
        {
          OFFSET 10.2827 -0.00338 0.322123
          CHANNELS 3 Zrotation Xrotation Yrotation
          JOINT LeftForeArm
          {
            OFFSET 32.7669 0.099144 -1.42434
            CHANNELS 3 Zrotation Xrotation Yrotation
            JOINT LeftHand
            {
              OFFSET 27.5643 0.085362 1.02216
              CHANNELS 3 Zrotation Xrotation Yrotation
              End Site
              {
                OFFSET 16.7443 -0.6 1.50291
              }
            }
          }
        }
      }
      JOINT RightShoulder
      {
        OFFSET -8.99 -0.362252 -0.22
        CHANNELS 3 Zrotation Xrotation Yrotation
        JOINT RightArm
        {
          OFFSET -10.2827 -0.00338 0.322123
          CHANNELS 3 Zrotation Xrotation Yrotation
          JOINT RightForeArm
          {
            OFFSET -32.8971 0.099144 -1.42434
            CHANNELS 3 Zrotation Xrotation Yrotation
            JOINT RightHand
            {
              OFFSET -27.4921 0.085362 1.02216
              CHANNELS 3 Zrotation Xrotation Yrotation
              End Site
              {
                OFFSET -16.6312 -0.6 1.50291
              }
            }
          }
        }
      }
    }
  }
  JOINT LeftUpLeg
  {
    OFFSET 8.9458 -8.66707 0.101652
    CHANNELS 3 Zrotation Xrotation Yrotation
    JOINT LeftLeg
    {
      OFFSET 0 -44.4227 1.3727
      CHANNELS 3 Zrotation Xrotation Yrotation
      JOINT LeftFoot
      {
        OFFSET -0.253549 -42.0924 -1.46059
        CHANNELS 3 Zrotation Xrotation Yrotation
        JOINT LeftToes
        {
          OFFSET -0.04 -4.41509 8.4991
          CHANNELS 3 Zrotation Xrotation Yrotation
          End Site
          {
            OFFSET 0.08 -0.047448 9.77979
          }
        }
      }
    }
  }
}
MOTION
Frames:	21
Frame Time:	0.0166667
42.5552 91.4086 122.909 1.15669 5.4753 -148.761 -7.74033 -32.6137 -15.8961 -41.3222 38.7942 24.9805 3.35253 -5.75062 -0.353648 0.0462048 0.000533403 0.662642 8.62982 26.7027 -4.75788 0.0375444 0.0957098 -0.0154598 11.1265 4.65483 -16.9 3.53113e-031 -3.18055e-015 6.36111e-015 -101.56 -34.3982 -62.7285 -118.124 39.8362 0.899793 6.29033 25.434 3.1838 -16.6058 38.4144 15.9217 -147.973 -32.6248 147.259 127.821 36.8151 -3.62168 -3.38048 24.2399 -3.89056 19.0407 -37.441 17.8383 30.4982 50.8637 -47.4121 -32.3481 4.05323 -1.06725 -1.31729e-009 1.56059e-007 -4.93735e-009 
42.5552 91.4086 122.909 1.15669 5.4753 -148.761 -7.74033 -32.6137 -15.8961 -41.3222 38.7942 24.9805 3.35253 -5.75062 -0.353648 0.0462048 0.000533403 0.662642 8.62982 26.7027 -4.75788 0.0375444 0.0957098 -0.0154598 11.1265 4.65483 -16.9 3.53113e-031 -3.18055e-015 6.36111e-015 -101.56 -34.3982 -62.7285 -118.124 39.8362 0.899793 6.29033 25.434 3.1838 -16.6058 38.4144 15.9217 -147.973 -32.6248 147.259 127.821 36.8151 -3.62168 -3.38048 24.2399 -3.89056 19.0407 -37.441 17.8383 30.4982 50.8637 -47.4121 -32.3481 4.05323 -1.06725 -1.31729e-009 1.56059e-007 -4.93735e-009 
42.5552 91.4086 122.909 1.15669 5.4753 -148.761 -7.74033 -32.6137 -15.8961 -41.3222 38.7942 24.9805 3.35253 -5.75062 -0.353648 0.0462048 0.000533403 0.662642 8.62982 26.7027 -4.75788 0.0375444 0.0957098 -0.0154598 11.1265 4.65483 -16.9 3.53113e-031 -3.18055e-015 6.36111e-015 -101.56 -34.3982 -62.7285 -118.124 39.8362 0.899793 6.29033 25.434 3.1838 -16.6058 38.4144 15.9217 -147.973 -32.6248 147.259 127.821 36.8151 -3.62168 -3.38048 24.2399 -3.89056 19.0407 -37.441 17.8383 30.4982 50.8637 -47.4121 -32.3481 4.05323 -1.06725 -1.31729e-009 1.56059e-007 -4.93735e-009 
42.5552 91.4086 122.909 1.15669 5.4753 -148.761 -7.74033 -32.6137 -15.8961 -41.3222 38.7942 24.9805 3.35253 -5.75062 -0.353648 0.0462048 0.000533403 0.662642 8.62982 26.7027 -4.75788 0.0375444 0.0957098 -0.0154598 11.1265 4.65483 -16.9 3.53113e-031 -3.18055e-015 6.36111e-015 -101.56 -34.3982 -62.7285 -118.124 39.8362 0.899793 6.29033 25.434 3.1838 -16.6058 38.4144 15.9217 -147.973 -32.6248 147.259 127.821 36.8151 -3.62168 -3.38048 24.2399 -3.89056 19.0407 -37.441 17.8383 30.4982 50.8637 -47.4121 -32.3481 4.05323 -1.06725 -1.31729e-009 1.56059e-007 -4.93735e-009 
42.7518 86.9893 123.297 0.975754 4.5417 -152.069 -7.93563 -39.0342 -12.5022 -45.0889 45.8207 25.9191 -0.0112176 -5.08825 -0.690393 0.0462048 0.000533403 0.662642 9.85104 31.0771 -3.34109 0.0375418 0.0858198 -0.0154598 11.324 2.67053 -17.0993 -1.59028e-015 3.18055e-015 6.36111e-015 -94.8035 -32.1465 -55.4415 -114.698 46.1532 -5.69598 6.66231 26.1488 -1.38861 -12.9961 34.9147 14.8414 -149.383 -34.5948 147.831 128.461 39.3991 -4.06222 -10.3044 22.3098 1.84394 22.5533 -42.1605 21.4379 41.0305 56.3926 -55.5087 -39.1159 5.79032 -0.823188 -1.31729e-009 1.56059e-007 -4.93737e-009 
42.9673 81.5664 123.979 1.26708 3.66456 -157.003 -5.74899 -47.6673 -6.79815 -51.8119 52.392 30.9481 -2.51266 -3.91485 -0.727656 0.0462048 0.000533403 0.662642 10.9349 36.0434 -1.15674 0.0375378 0.0736398 -0.0149293 11.9824 0.476472 -17.2323 -3.18055e-015 0 -0 -93.607 -30.4397 -53.325 -111.022 50.3115 -11.0736 6.6263 29.6328 -4.11193 -8.30813 31.2314 13.3351 -153.864 -35.7647 148.661 128.471 41.3459 -4.26272 -4.32183 26.8588 1.42603 29.003 -46.9119 26.8281 53.9337 62.103 -66.1963 -45.9091 7.3198 -0.190722 -1.31729e-009 1.56059e-007 -4.93737e-009 
43.0912 75.8473 124.803 1.55654 3.07341 -161.417 -1.98644 -57.3227 -0.533992 -62.7737 58.2565 41.4737 -4.54391 -2.35295 -0.581674 0.0462048 0.000533403 0.662642 12.8159 41.5034 -0.706743 0.0375327 0.0632199 -0.0128041 13.1526 -1.86314 -17.2185 -1.59028e-015 -1.27222e-014 3.18055e-015 -95.9185 -29.6183 -54.3757 -108.182 53.0297 -15.0355 6.27265 29.1994 -5.95457 -3.2462 27.2073 11.6551 -160.393 -37.1087 149.282 128.259 42.8283 -4.06634 -8.58298 25.2058 4.96896 36.6921 -51.613 31.5345 72.699 67.1808 -83.0668 -52.9287 8.68937 0.669425 -1.31729e-009 1.56059e-007 -4.93736e-009 
43.0573 69.732 125.679 1.89815 2.71132 -165.419 4.9281 -67.3986 7.91124 -78.4073 62.2814 57.9674 -6.40682 -0.372164 -0.272286 0.0462048 0.000533403 0.662642 15.726 47.1787 -2.152 0.0375277 0.0525898 -0.00994813 14.8832 -4.38355 -16.8675 0 6.36111e-015 -0 -100.513 -29.3198 -57.5194 -114.654 54.1124 -12.8342 9.3335 32.3169 -5.05925 1.63445 22.9237 10.2708 -168.306 -38.8435 149.165 128.337 44.0242 -3.67737 -5.66658 27.8042 4.37085 45.1045 -55.7925 35.2691 98.392 68.2458 -106.785 -61.7434 10.2143 1.80243 -1.31729e-009 1.56059e-007 -4.93736e-009 
42.8685 63.7444 126.556 2.29713 2.52567 -169.034 20.1998 -76.8743 23.7891 -95.9751 63.5197 77.6678 -8.37516 1.90158 0.118565 0.0462048 0.000533403 0.662642 20.1001 52.7438 -5.80044 0.0404694 0.0434398 -0.0070585 17.1798 -7.18735 -16.0702 -2.38542e-015 -1.27222e-014 -2.38542e-015 -106.51 -29.284 -62.1203 -118.228 54.6905 -11.9579 -4.69823 24.3 -8.84747 6.41929 18.4306 8.79999 -177.934 -41.0003 147.609 128.504 44.9322 -2.84705 -8.22495 26.9555 6.19408 53.5699 -58.9941 37.6661 121.657 66.9414 -129.148 -70.2179 10.9539 3.00188 -1.31729e-009 1.56059e-007 -4.93736e-009 
42.6161 57.8014 127.188 2.72902 2.48688 -172.301 67.2445 -83.5232 70.5962 -112.308 63.907 97.5527 -12.293 4.26717 0.372783 0.0462048 0.000533403 0.662642 26.6071 57.6515 -12.2755 0.0476698 0.0178998 -0.00483232 18.5873 -9.44471 -14.2714 9.93923e-016 0 5.96354e-016 -113.178 -29.6386 -66.9338 -121.359 55.3226 -11.1571 6.40058 32.274 -3.34062 1.6566 16.0628 16.8232 -174.616 -39.4456 153.765 128.863 45.5926 -1.60784 -6.69581 28.6642 5.39037 61.1127 -60.9818 38.002 139.243 63.8787 -146.96 -78.7173 11.1531 3.86191 -1.3173e-009 1.56059e-007 -4.93736e-009 
42.2572 52.4312 127.655 3.20741 2.58406 -175.212 136.285 -81.443 138.682 -125.996 63.5607 115.88 -17.3777 6.51386 0.602949 0.0462048 0.000533403 0.662642 35.7899 61.3272 -22.0289 0.0498098 0.00254986 -0.00403242 19.1086 -11.0499 -11.7856 1.59028e-015 0 -3.97569e-016 -119.675 -26.6961 -73.5798 -118.353 55.0821 -14.131 0.00980282 27.3825 -5.57804 8.22396 11.8966 12.948 170.266 -43.0148 147.776 129.155 45.9846 0.0507064 -8.10993 28.2765 5.74605 66.2467 -61.7228 35.2421 151.226 60.5587 -160.176 -87.1048 10.9104 4.31224 -1.31729e-009 1.56059e-007 -4.93736e-009 
41.9574 47.9356 128.011 3.70488 2.82906 -177.777 155.422 -75.9359 156.277 -134.195 62.3687 129.066 -21.6091 8.17295 0.812331 0.0462048 0.000533403 0.662642 44.5563 63.3866 -31.6949 -0.0397582 -0.0508998 0.038902 19.5643 -13.0105 -9.32268 1.59028e-015 3.18055e-015 1.59028e-015 -124.027 -22.2054 -80.4176 -120.795 54.4347 -13.6081 10.5114 32.7164 -0.769584 12.966 8.35906 9.95945 156.558 -44.6 140.532 129.24 46.216 1.92884 -7.02537 29.5188 4.61411 67.9735 -61.2815 28.9845 159.39 58.1302 -170.066 -95.2969 10.4058 4.52919 -1.3173e-009 1.56059e-007 -4.93736e-009 
41.6685 44.5236 128.294 4.19617 3.20337 179.995 171.893 -73.1537 171.211 -138.468 62.3328 138.099 -25.7487 9.38133 0.94897 0.0462048 0.000533403 0.662642 51.8336 64.1694 -40.0855 -0.0396582 -0.0464998 0.039622 19.7087 -15.3456 -6.67974 2.64834e-031 -6.36111e-015 2.38542e-015 -127.343 -20.383 -85.2587 -122.782 54.1089 -13.7393 -5.89525 26.7847 -7.60261 16.4702 5.58667 7.58855 144.636 -44.4849 133.48 129.072 46.3095 3.8923 -7.4508 29.367 4.23268 66.5578 -59.5943 20.1299 165.484 57.0087 -177.789 -103.053 9.71945 4.60153 -1.31729e-009 1.56059e-007 -4.93736e-009 
41.9249 42.2661 127.956 4.65231 3.69103 178.066 179.802 -71.8312 177.221 -142.665 63.0526 146.066 -30.2 9.49374 0.654237 0.0462048 0.000533403 0.662642 56.8163 64.0701 -46.3061 -0.0390319 -0.0500398 0.0390506 19.512 -17.9197 -4.07588 -3.18055e-015 0 7.95139e-016 -131.336 -17.6417 -91.1888 -122.228 51.6413 -14.2903 3.69063 29.9588 3.03959 13.5861 -2.81889 13.4727 144.346 -47.9978 131.841 125.502 47.4686 7.93786 -18.1488 38.5881 17.7931 66.4458 -60.293 11.803 173.303 55.8599 173.045 -98.0861 10.0573 5.13687 -1.31729e-009 1.56059e-007 -4.93736e-009 
42.5629 40.9467 127.445 5.07899 4.26807 176.4 -174.032 -72.021 -178.492 -147.296 64.431 153.429 -34.8383 9.31311 0.250827 0.0462048 0.000533403 0.662642 59.5348 63.4256 -50.2896 -0.0310182 -0.0398298 0.0375516 18.8915 -20.7372 -1.49189 -3.18055e-015 3.18055e-015 -0 -134.413 -16.9431 -94.918 -123.363 50.4267 -14.3122 -6.26105 37.0864 -15.5686 16.3057 -3.28634 10.695 135.652 -38.7876 126.541 122.931 46.1695 7.08428 -3.32147 27.572 -0.859492 65.1887 -59.7106 3.26256 178.818 56.1542 168.194 -93.3941 10.8195 5.59245 -1.31729e-009 1.56059e-007 -4.93736e-009 
44.0563 40.6054 126.481 5.47518 4.92418 175.011 -169.268 -73.3136 -175.966 -155.628 64.9955 163.482 -40.5434 9.32887 -0.249702 0.0462048 0.000533403 0.662642 60.3091 62.4348 -52.2767 -0.0264284 -0.03298 0.0345614 17.8198 -23.7581 1.02 -3.18055e-015 3.18055e-015 -0 -139.526 -14.6597 -100.511 -126.763 50.2615 -12.9104 5.05177 33.1439 -1.59049 18.7857 -3.54976 8.47249 129.72 -28.6638 123.456 120.379 43.7422 4.35589 -23.3187 37.6511 30.3049 63.6719 -57.6991 -4.69493 -175.525 57.5672 164.338 -87.9769 11.3043 5.20139 -1.3173e-009 1.56059e-007 -4.93736e-009 
46.0654 40.8729 125.472 5.84721 5.62726 173.883 -165.101 -75.8376 -173.966 -162.912 65.8706 171.49 -45.8417 9.07537 -0.701773 0.0462048 0.000533403 0.662642 57.3641 60.6934 -50.23 -0.0422772 -0.11577 0.0654922 16.168 -25.8908 2.56589 2.64834e-031 3.18055e-015 -4.77083e-015 -142.646 -14.7124 -102.57 -129.541 49.9819 -11.7977 0.818041 31.0264 -5.68086 20.6218 -2.03627 6.61806 126.612 -22.7882 121.926 119.696 42.4765 2.194 -8.89249 35.8711 20.9332 62.3085 -55.0038 -11.0897 -169.176 59.607 160.682 -81.6464 11.451 4.39283 -1.31729e-009 1.56059e-007 -4.93737e-009 
49.0891 41.9949 124.175 6.15882 6.35188 173.051 -161.885 -79.5336 -173.103 -170.142 66.8506 178.25 -51.1037 8.60479 -1.32474 0.0462048 0.000533403 0.662642 51.8285 58.4592 -45.1732 -0.0609868 -0.0934898 0.069443 14.1339 -27.5353 3.33735 -9.54166e-015 -3.18055e-015 -0 -147.473 -14.6432 -105.909 -131.632 45.525 -9.72358 7.78512 30.8972 1.34061 26.3011 -10.1244 8.13774 118.613 -27.9262 112.991 123.445 42.9925 2.40597 -15.9939 35.3168 16.0966 60.6436 -53.3314 -15.3657 -162.373 62.3804 156.775 -68.1826 11.4049 2.80243 -1.3173e-009 1.56059e-007 -4.93737e-009 
52.4269 43.3898 122.909 6.37493 7.05745 172.519 -158.984 -84.0214 -172.431 -177.331 68.1358 -175.741 -55.9947 8.23582 -1.82153 0.0462048 0.000533403 0.662642 44.9183 55.7015 -38.2321 -0.0667976 -0.0612398 0.0675047 11.6567 -28.7553 3.39667 -3.18055e-015 0 -1.59028e-015 -149.653 -16.1507 -106.127 -132.125 47.5894 -9.47413 1.29524 43.9635 -5.94245 26.3152 -5.46914 6.52412 120.035 -26.3807 115.389 125.753 43.1437 2.48416 -8.09701 32.8684 8.39304 58.776 -50.9962 -17.8667 -155.493 65.3976 152.227 -54.1462 10.4086 1.35868 -1.3173e-009 1.56059e-007 -4.93736e-009 
56.3524 45.3548 121.397 6.41384 7.69738 172.38 -158.264 -89.1692 -173.994 176.266 68.7202 -171.576 -60.3125 8.19374 -2.11989 0.0462048 0.000533403 0.662642 37.6255 52.3817 -30.3771 -0.0667405 -0.0284998 0.0631351 8.72623 -29.7099 2.82397 6.36111e-015 -3.18055e-015 -0 -153.502 -17.8873 -107.784 -132.036 49.0347 -8.6599 0.231612 29.8258 0.289329 26.0442 -0.663908 5.54188 120.672 -23.0166 118.543 122.723 42.531 3.18156 -12.1012 32.8026 7.49251 56.9053 -47.8028 -18.8268 -147.53 68.912 146.028 -39.8832 8.45538 -0.0438879 -1.31729e-009 1.56059e-007 -4.93737e-009 
60.4092 47.4937 119.936 5.16088 8.10698 174.504 2.59235 -85.7635 -13.9775 168.847 70.5551 -166.692 -64.2002 8.0668 -2.19114 0.0462048 0.000533403 0.662642 30.9316 47.4273 -24.2121 -0.0640272 -0.0023198 0.0594132 5.28746 -30.2214 1.75505 3.18055e-015 3.18055e-015 3.18055e-015 -154.064 -20.0289 -106.65 -132.303 49.6142 -7.3749 1.54621 29.7189 -2.75914 30.517 -5.67077 1.72393 114.594 -24.4658 111.284 121.241 42.0254 3.58155 6.80032 26.5984 11.9739 53.1803 -45.6389 -19.565 -136.465 72.8054 136.411 -25.4085 5.90051 -0.91868 -1.31729e-009 1.56059e-007 -4.93736e-009 
